HIERARCHY
ROOT ui
{
	 OFFSET 0 0 0
	 CHANNELS 3 XPosition YPosition Z Position
	 EndSite
	 {
	 OFFSET 0 -1 0
	 }
}
ROOT li
{
	 OFFSET 0 0 0
	 CHANNELS 3 XPosition YPosition Z Position
	 EndSite
	 {
	 OFFSET 0 -1 0
	 }
}
ROOT ul
{
	 OFFSET 0 0 0
	 CHANNELS 3 XPosition YPosition Z Position
	 EndSite
	 {
	 OFFSET 0 -1 0
	 }
}
ROOT ll
{
	 OFFSET 0 0 0
	 CHANNELS 3 XPosition YPosition Z Position
	 EndSite
	 {
	 OFFSET 0 -1 0
	 }
}
ROOT tt
{
	 OFFSET 0 0 0
	 CHANNELS 3 XPosition YPosition Z Position
	 EndSite
	 {
	 OFFSET 0 -1 0
	 }
}
ROOT tb
{
	 OFFSET 0 0 0
	 CHANNELS 3 XPosition YPosition Z Position
	 EndSite
	 {
	 OFFSET 0 -1 0
	 }
}
ROOT td
{
	 OFFSET 0 0 0
	 CHANNELS 3 XPosition YPosition Z Position
	 EndSite
	 {
	 OFFSET 0 -1 0
	 }
}
ROOT v
{
	 OFFSET 0 0 0
	 CHANNELS 3 XPosition YPosition Z Position
	 EndSite
	 {
	 OFFSET 0 -1 0
	 }
}
ROOT bn
{
	 OFFSET 0 0 0
	 CHANNELS 3 XPosition YPosition Z Position
	 EndSite
	 {
	 OFFSET 0 -1 0
	 }
}
MOTION
Frames: 16
Frame Time: 0.002
0.02507382392883301	-4.8697200417518614E-4	0		0.48044534301757813	-2.33677392578125	0		-1.0642171630859374	0.1645132598876953	0		-0.7640524291992188	-2.584132568359375	0		2.0944912109375	-0.28157839965820314	0		3.67956787109375	-0.17617405700683594	0		4.82527880859375	-0.2601448059082031	0		5.9630966796875	0.5231535034179687	0		-0.16849481201171876	5.9387861328125	0		
-0.05297921752929687	0.00198369300365448	0		0.44234628295898437	-2.327039306640625	0		-1.0701986083984374	0.16980741882324218	0		-0.7412848510742187	-2.58136865234375	0		2.091317626953125	-0.28557855224609374	0		3.662212158203125	-0.19104962158203126	0		4.796005859375	-0.2698993835449219	0		5.9550380859375	0.5219425048828125	0		-0.16910235595703124	5.93992431640625	0		
0.024918399810791015	-2.810760140419006E-4	0		0.4778954772949219	-2.3386025390625	0		-1.0651888427734375	0.17390299987792968	0		-0.7557826538085938	-2.5939619140625	0		2.096098876953125	-0.2927244567871094	0		3.64907373046875	-0.19400068664550782	0		4.795912109375	-0.27016659545898436	0		5.95500537109375	0.521586181640625	0		-0.16871830749511718	5.9400390625	0		
-0.038362045288085934	-0.012073131561279296	0		0.4636410217285156	-2.3392958984375	0		-1.067094970703125	0.18211410522460938	0		-0.7072075805664062	-2.603671875	0		2.096015869140625	-0.29278829956054686	0		3.63582373046875	-0.20395184326171875	0		4.7865498046875	-0.28627481079101563	0		5.96398291015625	0.5210693969726562	0		-0.1521524658203125	5.94986376953125	0		
0.0349896354675293	0.00972314453125	0		0.4586542663574219	-2.326153076171875	0		-1.06389501953125	0.19522932434082033	0		-0.752207763671875	-2.589732666015625	0		2.095950439453125	-0.2928536071777344	0		3.657885498046875	-0.19752294921875	0		4.78682177734375	-0.2675436401367188	0		5.968119140625	0.5286436767578125	0		-0.16792738342285157	5.94025146484375	0		
0.0318984146118164	0.005861918926239013	0		0.48133795166015625	-2.3335068359375	0		-0.9989124755859375	0.19423617553710937	0		-0.6866387329101562	-2.602763916015625	0		2.043827392578125	-0.29699053955078125	0		3.59059375	-0.21150341796875	0		4.77271240234375	-0.27155001831054687	0		5.95913720703125	0.528462890625	0		-0.036116024017333985	5.962015625	0		
0.039524921417236326	-0.01519515609741211	0		0.4501512145996094	-2.334900634765625	0		-1.0838475341796876	0.1979067840576172	0		-0.7258246459960938	-2.602935791015625	0		2.045630859375	-0.3070788269042969	0		3.615470703125	-0.21810824584960936	0		4.7703037109375	-0.293750244140625	0		5.95503369140625	0.5202156372070312	0		-0.1690803985595703	5.94248193359375	0		
-0.05315289306640625	0.002550023078918457	0		0.45206060791015623	-2.33288232421875	0		-1.0047725219726562	0.19964154052734376	0		-0.7280032348632812	-2.604770751953125	0		2.0384725341796877	-0.31599810791015626	0		3.58239404296875	-0.22266123962402343	0		4.75036328125	-0.29061053466796877	0		5.959943359375	0.5118340759277343	0		-0.18384254455566407	5.93384619140625	0		
0.024848636627197267	2.3355400562286377E-4	0		0.4628488159179687	-2.33902197265625	0		-1.0864639892578125	0.2152548828125	0		-0.753224853515625	-2.6101953125	0		1.99843896484375	-0.31831228637695314	0		3.590735595703125	-0.20493081665039062	0		4.738380859375	-0.29058465576171877	0		5.96414794921875	0.5195014038085938	0		-0.16827407836914063	5.94466845703125	0		
-0.04190656661987305	0.012524211883544922	0		0.4829071960449219	-2.331322021484375	0		-1.0073583374023438	0.21796968078613282	0		-0.728217041015625	-2.604523681640625	0		1.9984583740234374	-0.318327880859375	0		3.56435009765625	-0.22755418395996094	0		4.72945703125	-0.2875768127441406	0		5.95935498046875	0.5273743286132813	0		-0.036544803619384766	5.9653955078125	0		
-0.027071996688842772	0.0013455899953842164	0		0.445012939453125	-2.321568115234375	0		-1.0172940673828126	0.21928182983398437	0		-0.6984592895507813	-2.61394482421875	0		2.0020999755859377	-0.3393922119140625	0		3.58440869140625	-0.22597767639160157	0		4.72537255859375	-0.2936143798828125	0		5.95941259765625	0.5272115478515625	0		-0.0362755126953125	5.964486328125	0		
0.02495555114746094	4.97395008802414E-4	0		0.46782321166992186	-2.329905517578125	0		-1.0231592407226562	0.22451611328125	0		-0.6917285766601563	-2.625953857421875	0		1.9490428466796874	-0.3434053649902344	0		3.5432265625	-0.23725958251953125	0		4.71545458984375	-0.290498046875	0		5.95532177734375	0.5191799926757813	0		-0.03698687744140625	5.96759765625	0		
-0.05297186279296875	0.0030065560340881347	0		0.44972073364257814	-2.334494140625	0		-1.0339471435546874	0.23383428955078125	0		-0.660882568359375	-2.633402587890625	0		1.94375048828125	-0.36126348876953124	0		3.539335693359375	-0.2331780242919922	0		4.7082548828125	-0.30338766479492185	0		5.95152197265625	0.5272025146484375	0		-0.1691962432861328	5.947091796875	0		
0.025052207946777344	6.885340213775634E-4	0		0.4538110656738281	-2.330477783203125	0		-1.018	0.22765782165527343	0		-0.7168414916992187	-2.631279296875	0		1.9116962890625	-0.36661544799804685	0		3.536879150390625	-0.2610959167480469	0		4.6853271484375	-0.30194754028320314	0		5.96127490234375	0.5100271606445312	0		-0.18599066162109376	5.9504990234375	0		
0.045126739501953124	4.2135998606681826E-4	0		0.46681436157226563	-2.33362060546875	0		-1.016539306640625	0.24874020385742188	0		-0.645904541015625	-2.6384658203125	0		1.932568115234375	-0.3779134826660156	0		3.539463134765625	-0.23306787109375	0		4.691546875	-0.29399761962890625	0		5.95750244140625	0.5181488647460938	0		-0.020385868072509767	5.97559619140625	0		
0.02523740005493164	8.780239820480347E-4	0		0.48093731689453123	-2.332781494140625	0		-1.0355377197265625	0.2431798095703125	0		-0.7326378173828125	-2.6287939453125	0		1.90348046875	-0.3882917785644531	0		3.508266845703125	-0.24940901184082032	0		4.69541748046875	-0.30697509765625	0		5.95662841796875	0.5192597045898437	0		-0.16881639099121093	5.94738232421875	0		
